# xmcd
#
# Track frame offsets:
#	150
#	19339
#	39433
#	54180
#	71728
#	87752
#	109044
#	127216
#	145912
#	162852
#	178446
#
# Disc length: 2546 seconds
# Revision: 1
# Processed by: cddbd v1.5.2PL0 Copyright (c) Steve Scherf et al.
# Submitted via: dBpowerAMP V12.0
#
DISCID=9a09f00b
DTITLE=The Jed Rowe Band - The Ember And The Afterglow
DYEAR=2000
DGENRE=Blues
TTITLE0=Castlemaine
TTITLE1=Bloodlines
TTITLE2=Across The Water
TTITLE3=This Love Divine
TTITLE4=Waiting By Your Side
TTITLE5=Good Thing Gone
TTITLE6=I Wonder Why You Hide
TTITLE7=Violet Town
TTITLE8=Planets Round The Sun
TTITLE9=Looking Through The Devil's Window
TTITLE10=When The House Shakes
EXTD=
EXTT0=
EXTT1=
EXTT2=
EXTT3=
EXTT4=
EXTT5=
EXTT6=
EXTT7=
EXTT8=
EXTT9=
EXTT10=
PLAYORDER=
